<mxfile host="app.diagrams.net" agent="Mozilla/5.0 (Windows NT 10.0; Win64; x64; rv:142.0) Gecko/20100101 Firefox/142.0" version="28.1.1">
  <diagram name="Seite-1" id="HejLBixmDfHf1gUCpycG">
    <mxGraphModel dx="1826" dy="803" grid="1" gridSize="10" guides="1" tooltips="1" connect="1" arrows="1" fold="1" page="0" pageScale="1" pageWidth="827" pageHeight="1169" math="0" shadow="0">
      <root>
        <mxCell id="0" />
        <mxCell id="1" parent="0" />
        <mxCell id="Dd1L3V_N0C7tP0Iz6ugw-4" value="" style="group" vertex="1" connectable="0" parent="1">
          <mxGeometry x="-60" y="60" width="167" height="172" as="geometry" />
        </mxCell>
        <mxCell id="Dd1L3V_N0C7tP0Iz6ugw-2" value="" style="rounded=0;whiteSpace=wrap;html=1;" vertex="1" parent="Dd1L3V_N0C7tP0Iz6ugw-4">
          <mxGeometry width="167" height="170" as="geometry" />
        </mxCell>
        <mxCell id="Dd1L3V_N0C7tP0Iz6ugw-3" value="&lt;div&gt;&lt;font style=&quot;font-size: 13px;&quot;&gt;Keins&lt;span style=&quot;white-space: pre;&quot;&gt;&#x9;&lt;/span&gt;&lt;span style=&quot;white-space: pre;&quot;&gt;&#x9;1. VCC*&lt;/span&gt;&lt;/font&gt;&lt;/div&gt;&lt;div&gt;&lt;font style=&quot;font-size: 13px;&quot;&gt;Schwarz&lt;span style=&quot;white-space: pre;&quot;&gt;&#x9;14. GND&lt;/span&gt;&lt;/font&gt;&lt;/div&gt;&lt;div&gt;&lt;font style=&quot;font-size: 13px;&quot;&gt;Braun&lt;span style=&quot;white-space: pre;&quot;&gt;&#x9;&lt;/span&gt;&lt;span style=&quot;white-space: pre;&quot;&gt;&#x9;&lt;/span&gt;2. EN&lt;/font&gt;&lt;/div&gt;&lt;div&gt;&lt;font style=&quot;font-size: 13px;&quot;&gt;Violet&lt;span style=&quot;white-space: pre;&quot;&gt;&#x9;&lt;/span&gt;&lt;span style=&quot;white-space: pre;&quot;&gt;&#x9;&lt;/span&gt;3. DA&lt;/font&gt;&lt;/div&gt;&lt;div&gt;&lt;font style=&quot;font-size: 13px;&quot;&gt;Blau&lt;span style=&quot;white-space: pre;&quot;&gt;&#x9;&lt;/span&gt;&lt;span style=&quot;white-space: pre;&quot;&gt;&#x9;&lt;/span&gt;5. CLK&lt;/font&gt;&lt;/div&gt;&lt;div&gt;&lt;font style=&quot;font-size: 13px;&quot;&gt;FrÃ¼n&lt;span style=&quot;white-space: pre;&quot;&gt;&#x9;&lt;/span&gt;&lt;span style=&quot;white-space: pre;&quot;&gt;&#x9;&lt;/span&gt;6. LA&lt;/font&gt;&lt;/div&gt;&lt;div&gt;&lt;font style=&quot;font-size: 13px;&quot;&gt;Orange&lt;span style=&quot;white-space: pre;&quot;&gt;&#x9;&lt;/span&gt;&lt;span style=&quot;white-space: pre;&quot;&gt;&#x9;7. SW1&lt;/span&gt;&lt;/font&gt;&lt;/div&gt;&lt;div&gt;&lt;font style=&quot;font-size: 13px;&quot;&gt;Gelb&lt;span style=&quot;white-space: pre;&quot;&gt;&#x9;&lt;/span&gt;&lt;span style=&quot;white-space: pre;&quot;&gt;&#x9;&lt;/span&gt;4. SW2&lt;/font&gt;&lt;/div&gt;&lt;div&gt;Weiss&lt;span style=&quot;white-space: pre;&quot;&gt;&#x9;&lt;/span&gt;&lt;span style=&quot;white-space: pre;&quot;&gt;&#x9;12. Com&lt;/span&gt;&lt;/div&gt;&lt;div&gt;Keins&lt;span style=&quot;white-space: pre;&quot;&gt;&#x9;&lt;/span&gt;&lt;span style=&quot;white-space: pre;&quot;&gt;&#x9;&lt;/span&gt;11. Mic**&lt;/div&gt;" style="text;html=1;align=left;verticalAlign=top;whiteSpace=wrap;rounded=0;" vertex="1" parent="Dd1L3V_N0C7tP0Iz6ugw-4">
          <mxGeometry x="7" width="153" height="172" as="geometry" />
        </mxCell>
        <mxCell id="Dd1L3V_N0C7tP0Iz6ugw-5" value="" style="group" vertex="1" connectable="0" parent="1">
          <mxGeometry x="200" y="60" width="167" height="172" as="geometry" />
        </mxCell>
        <mxCell id="Dd1L3V_N0C7tP0Iz6ugw-6" value="" style="rounded=0;whiteSpace=wrap;html=1;" vertex="1" parent="Dd1L3V_N0C7tP0Iz6ugw-5">
          <mxGeometry width="167" height="170" as="geometry" />
        </mxCell>
        <mxCell id="Dd1L3V_N0C7tP0Iz6ugw-7" value="&lt;div&gt;&lt;font style=&quot;font-size: 13px;&quot;&gt;VIN&lt;span style=&quot;white-space: pre;&quot;&gt;&#x9;&lt;/span&gt;&lt;span style=&quot;white-space: pre;&quot;&gt;&#x9;&lt;/span&gt;&lt;span style=&quot;white-space: pre;&quot;&gt;&#x9;&lt;/span&gt;Qwiic&lt;/font&gt;&lt;/div&gt;&lt;div&gt;&lt;font style=&quot;font-size: 13px;&quot;&gt;GND&lt;/font&gt;&lt;/div&gt;&lt;div&gt;&lt;font style=&quot;font-size: 13px;&quot;&gt;G0&lt;/font&gt;&lt;/div&gt;&lt;div&gt;&lt;font style=&quot;font-size: 13px;&quot;&gt;G1&lt;/font&gt;&lt;/div&gt;&lt;div&gt;&lt;font style=&quot;font-size: 13px;&quot;&gt;G2&lt;/font&gt;&lt;/div&gt;&lt;div&gt;&lt;font style=&quot;font-size: 13px;&quot;&gt;G3&lt;/font&gt;&lt;/div&gt;&lt;div&gt;&lt;font style=&quot;font-size: 13px;&quot;&gt;G4&lt;/font&gt;&lt;/div&gt;&lt;div&gt;&lt;font style=&quot;font-size: 13px;&quot;&gt;G5&lt;/font&gt;&lt;/div&gt;&lt;div&gt;&lt;font style=&quot;font-size: 13px;&quot;&gt;GND&lt;/font&gt;&lt;/div&gt;&lt;div&gt;&lt;font style=&quot;font-size: 13px;&quot;&gt;A0&lt;/font&gt;&lt;/div&gt;" style="text;html=1;align=left;verticalAlign=top;whiteSpace=wrap;rounded=0;" vertex="1" parent="Dd1L3V_N0C7tP0Iz6ugw-5">
          <mxGeometry x="20" width="153" height="172" as="geometry" />
        </mxCell>
        <mxCell id="Dd1L3V_N0C7tP0Iz6ugw-8" value="" style="endArrow=none;html=1;rounded=0;fontSize=12;startSize=8;endSize=8;curved=1;exitX=1;exitY=0.087;exitDx=0;exitDy=0;exitPerimeter=0;" edge="1" parent="1" source="Dd1L3V_N0C7tP0Iz6ugw-3">
          <mxGeometry width="50" height="50" relative="1" as="geometry">
            <mxPoint x="100" y="75" as="sourcePoint" />
            <mxPoint x="210" y="75" as="targetPoint" />
          </mxGeometry>
        </mxCell>
        <mxCell id="Dd1L3V_N0C7tP0Iz6ugw-9" value="" style="endArrow=none;html=1;rounded=0;fontSize=12;startSize=8;endSize=8;curved=1;exitX=1;exitY=0.087;exitDx=0;exitDy=0;exitPerimeter=0;" edge="1" parent="1">
          <mxGeometry width="50" height="50" relative="1" as="geometry">
            <mxPoint x="99" y="88" as="sourcePoint" />
            <mxPoint x="209" y="88" as="targetPoint" />
          </mxGeometry>
        </mxCell>
        <mxCell id="Dd1L3V_N0C7tP0Iz6ugw-10" value="" style="endArrow=none;html=1;rounded=0;fontSize=12;startSize=8;endSize=8;curved=1;exitX=1;exitY=0.087;exitDx=0;exitDy=0;exitPerimeter=0;" edge="1" parent="1">
          <mxGeometry width="50" height="50" relative="1" as="geometry">
            <mxPoint x="100" y="105" as="sourcePoint" />
            <mxPoint x="210" y="105" as="targetPoint" />
          </mxGeometry>
        </mxCell>
        <mxCell id="Dd1L3V_N0C7tP0Iz6ugw-11" value="" style="endArrow=none;html=1;rounded=0;fontSize=12;startSize=8;endSize=8;curved=1;exitX=1;exitY=0.087;exitDx=0;exitDy=0;exitPerimeter=0;" edge="1" parent="1">
          <mxGeometry width="50" height="50" relative="1" as="geometry">
            <mxPoint x="100" y="120" as="sourcePoint" />
            <mxPoint x="210" y="120" as="targetPoint" />
          </mxGeometry>
        </mxCell>
        <mxCell id="Dd1L3V_N0C7tP0Iz6ugw-12" value="" style="endArrow=none;html=1;rounded=0;fontSize=12;startSize=8;endSize=8;curved=1;exitX=1;exitY=0.087;exitDx=0;exitDy=0;exitPerimeter=0;" edge="1" parent="1">
          <mxGeometry width="50" height="50" relative="1" as="geometry">
            <mxPoint x="100" y="137" as="sourcePoint" />
            <mxPoint x="210" y="137" as="targetPoint" />
          </mxGeometry>
        </mxCell>
        <mxCell id="Dd1L3V_N0C7tP0Iz6ugw-13" value="" style="endArrow=none;html=1;rounded=0;fontSize=12;startSize=8;endSize=8;curved=1;exitX=1;exitY=0.087;exitDx=0;exitDy=0;exitPerimeter=0;" edge="1" parent="1">
          <mxGeometry width="50" height="50" relative="1" as="geometry">
            <mxPoint x="100" y="152" as="sourcePoint" />
            <mxPoint x="210" y="152" as="targetPoint" />
          </mxGeometry>
        </mxCell>
        <mxCell id="Dd1L3V_N0C7tP0Iz6ugw-14" value="" style="endArrow=none;html=1;rounded=0;fontSize=12;startSize=8;endSize=8;curved=1;exitX=1;exitY=0.087;exitDx=0;exitDy=0;exitPerimeter=0;" edge="1" parent="1">
          <mxGeometry width="50" height="50" relative="1" as="geometry">
            <mxPoint x="100" y="167" as="sourcePoint" />
            <mxPoint x="210" y="167" as="targetPoint" />
          </mxGeometry>
        </mxCell>
        <mxCell id="Dd1L3V_N0C7tP0Iz6ugw-15" value="" style="endArrow=none;html=1;rounded=0;fontSize=12;startSize=8;endSize=8;curved=1;exitX=1;exitY=0.087;exitDx=0;exitDy=0;exitPerimeter=0;" edge="1" parent="1">
          <mxGeometry width="50" height="50" relative="1" as="geometry">
            <mxPoint x="100" y="184" as="sourcePoint" />
            <mxPoint x="210" y="184" as="targetPoint" />
          </mxGeometry>
        </mxCell>
        <mxCell id="Dd1L3V_N0C7tP0Iz6ugw-16" value="" style="endArrow=none;html=1;rounded=0;fontSize=12;startSize=8;endSize=8;curved=1;exitX=1;exitY=0.087;exitDx=0;exitDy=0;exitPerimeter=0;" edge="1" parent="1">
          <mxGeometry width="50" height="50" relative="1" as="geometry">
            <mxPoint x="100" y="197" as="sourcePoint" />
            <mxPoint x="210" y="197" as="targetPoint" />
          </mxGeometry>
        </mxCell>
        <mxCell id="Dd1L3V_N0C7tP0Iz6ugw-17" value="" style="endArrow=none;html=1;rounded=0;fontSize=12;startSize=8;endSize=8;curved=1;exitX=1;exitY=0.087;exitDx=0;exitDy=0;exitPerimeter=0;" edge="1" parent="1">
          <mxGeometry width="50" height="50" relative="1" as="geometry">
            <mxPoint x="100" y="214" as="sourcePoint" />
            <mxPoint x="210" y="214" as="targetPoint" />
          </mxGeometry>
        </mxCell>
        <mxCell id="Dd1L3V_N0C7tP0Iz6ugw-18" value="" style="group" vertex="1" connectable="0" parent="1">
          <mxGeometry x="480" y="60" width="173" height="80" as="geometry" />
        </mxCell>
        <mxCell id="Dd1L3V_N0C7tP0Iz6ugw-19" value="" style="rounded=0;whiteSpace=wrap;html=1;" vertex="1" parent="Dd1L3V_N0C7tP0Iz6ugw-18">
          <mxGeometry width="167" height="79.06976744186046" as="geometry" />
        </mxCell>
        <mxCell id="Dd1L3V_N0C7tP0Iz6ugw-20" value="&lt;div&gt;&lt;font style=&quot;font-size: 13px;&quot;&gt;&lt;span style=&quot;white-space: pre;&quot;&gt;Qwiic&#x9;&lt;/span&gt;&lt;span style=&quot;white-space: pre;&quot;&gt;&#x9;   &lt;/span&gt;Qwiic&lt;/font&gt;&lt;/div&gt;" style="text;html=1;align=left;verticalAlign=top;whiteSpace=wrap;rounded=0;" vertex="1" parent="Dd1L3V_N0C7tP0Iz6ugw-18">
          <mxGeometry x="20" width="153" height="37.2093023255814" as="geometry" />
        </mxCell>
        <mxCell id="Dd1L3V_N0C7tP0Iz6ugw-21" value="" style="group" vertex="1" connectable="0" parent="1">
          <mxGeometry x="800" y="60" width="90" height="80" as="geometry" />
        </mxCell>
        <mxCell id="Dd1L3V_N0C7tP0Iz6ugw-22" value="" style="rounded=0;whiteSpace=wrap;html=1;" vertex="1" parent="Dd1L3V_N0C7tP0Iz6ugw-21">
          <mxGeometry width="70" height="79.07" as="geometry" />
        </mxCell>
        <mxCell id="Dd1L3V_N0C7tP0Iz6ugw-23" value="Qwiic" style="text;html=1;align=left;verticalAlign=top;whiteSpace=wrap;rounded=0;" vertex="1" parent="Dd1L3V_N0C7tP0Iz6ugw-21">
          <mxGeometry x="10.404624277456646" width="79.59537572254335" height="37.2093023255814" as="geometry" />
        </mxCell>
        <mxCell id="Dd1L3V_N0C7tP0Iz6ugw-24" value="Frekvens Panel" style="text;html=1;align=center;verticalAlign=middle;resizable=0;points=[];autosize=1;strokeColor=none;fillColor=none;fontSize=16;" vertex="1" parent="1">
          <mxGeometry x="-51" y="21" width="130" height="30" as="geometry" />
        </mxCell>
        <mxCell id="Dd1L3V_N0C7tP0Iz6ugw-25" value="ESP32 Carrierboard" style="text;html=1;align=center;verticalAlign=middle;resizable=0;points=[];autosize=1;strokeColor=none;fillColor=none;fontSize=16;" vertex="1" parent="1">
          <mxGeometry x="199" y="21" width="170" height="30" as="geometry" />
        </mxCell>
        <mxCell id="Dd1L3V_N0C7tP0Iz6ugw-26" value="Knopf 1" style="text;html=1;align=center;verticalAlign=middle;resizable=0;points=[];autosize=1;strokeColor=none;fillColor=none;fontSize=16;" vertex="1" parent="1">
          <mxGeometry x="526.5" y="21" width="80" height="30" as="geometry" />
        </mxCell>
        <mxCell id="Dd1L3V_N0C7tP0Iz6ugw-27" value="Knopf2" style="text;html=1;align=center;verticalAlign=middle;resizable=0;points=[];autosize=1;strokeColor=none;fillColor=none;fontSize=16;" vertex="1" parent="1">
          <mxGeometry x="800" y="21" width="70" height="30" as="geometry" />
        </mxCell>
        <mxCell id="Dd1L3V_N0C7tP0Iz6ugw-28" value="" style="endArrow=none;html=1;rounded=0;fontSize=12;startSize=8;endSize=8;curved=1;" edge="1" parent="1">
          <mxGeometry width="50" height="50" relative="1" as="geometry">
            <mxPoint x="344" y="75" as="sourcePoint" />
            <mxPoint x="494" y="74.0759279223779" as="targetPoint" />
          </mxGeometry>
        </mxCell>
        <mxCell id="Dd1L3V_N0C7tP0Iz6ugw-29" value="" style="endArrow=none;html=1;rounded=0;fontSize=12;startSize=8;endSize=8;curved=1;entryX=0.071;entryY=0.164;entryDx=0;entryDy=0;entryPerimeter=0;" edge="1" parent="1">
          <mxGeometry width="50" height="50" relative="1" as="geometry">
            <mxPoint x="640" y="75" as="sourcePoint" />
            <mxPoint x="805.9699999999998" y="74.96748000000002" as="targetPoint" />
          </mxGeometry>
        </mxCell>
      </root>
    </mxGraphModel>
  </diagram>
</mxfile>
